<?xml version="1.0" standalone="no"?>
<!DOCTYPE svg PUBLIC "-//W3C//DTD SVG 20010904//EN"
 "http://www.w3.org/TR/2001/REC-SVG-20010904/DTD/svg10.dtd">
<svg version="1.0" xmlns="http://www.w3.org/2000/svg"
 width="227.000000pt" height="208.000000pt" viewBox="0 0 227.000000 208.000000"
 preserveAspectRatio="xMidYMid meet">

<g transform="translate(0.000000,208.000000) scale(0.100000,-0.100000)"
fill="#000000" stroke="none">
<path d="M344 1229 c-42 -12 -54 -44 -54 -150 0 -82 2 -92 25 -114 23 -24 29
-25 155 -25 126 0 164 7 182 34 11 17 9 205 -2 226 -6 11 -27 24 -48 30 -44
12 -215 12 -258 -1z m254 -138 c2 -61 -1 -87 -10 -92 -19 -12 -196 -11 -219 1
-16 9 -19 22 -19 89 0 43 3 81 7 85 4 3 59 5 122 4 l116 -3 3 -84z"/>
<path d="M726 1144 c-12 -12 -16 -36 -16 -99 0 -104 2 -105 135 -105 134 0
135 1 135 110 0 110 -1 110 -139 110 -77 0 -103 -4 -115 -16z m209 -94 l0 -65
-90 0 -90 0 -3 54 c-5 82 -5 82 95 79 l88 -3 0 -65z"/>
<path d="M1045 1146 c-27 -20 -35 -145 -11 -181 16 -24 20 -25 126 -25 137 0
140 2 140 109 0 106 -6 111 -136 111 -70 0 -106 -4 -119 -14z m210 -96 l0 -65
-90 0 -90 0 -3 54 c-5 82 -5 82 95 79 l88 -3 0 -65z"/>
<path d="M1340 1050 c0 -103 1 -110 20 -110 16 0 20 7 20 35 l0 35 100 0 c116
0 140 13 140 75 0 65 -22 75 -160 75 l-120 0 0 -110z m230 35 l0 -35 -95 0
-95 0 0 35 0 35 95 0 95 0 0 -35z"/>
<path d="M1661 1146 c-7 -8 -11 -30 -9 -48 4 -45 34 -58 136 -58 l83 0 -3 -27
-3 -28 -107 -3 c-100 -2 -108 -4 -108 -22 0 -19 7 -20 111 -20 138 0 149 5
149 69 0 28 -6 53 -13 59 -7 6 -56 13 -107 14 -81 3 -95 6 -98 21 -3 15 7 17
107 17 104 0 111 1 111 20 0 19 -7 20 -119 20 -91 0 -121 -3 -130 -14z"/>
<path d="M1960 1079 c0 -71 2 -80 18 -77 14 3 17 16 20 81 3 72 1 77 -18 77
-18 0 -20 -6 -20 -81z"/>
<path d="M1960 961 c0 -15 6 -21 21 -21 25 0 22 33 -4 38 -12 2 -17 -3 -17
-17z"/>
</g>
</svg>
